<svg xmlns="http://www.w3.org/2000/svg" width="550" height="366" viewBox="0 0 550 366">
<defs>
  <linearGradient id="f" x1="0" y1="0" x2="0" y2="1">
    <stop offset="0" stop-color="#33383a"/>
    <stop offset=".18" stop-color="#202426"/>
    <stop offset=".72" stop-color="#141718"/>
    <stop offset="1" stop-color="#0b0d0e"/>
  </linearGradient>
  <linearGradient id="g" x1="0" y1="0" x2="0" y2="1">
    <stop offset="0" stop-color="#17232a" stop-opacity=".15"/>
    <stop offset=".55" stop-color="#081116" stop-opacity=".22"/>
    <stop offset="1" stop-color="#020608" stop-opacity=".30"/>
  </linearGradient>
  <linearGradient id="r" x1="0" y1="0" x2="1" y2="1">
    <stop offset="0" stop-color="#fff" stop-opacity=".15"/>
    <stop offset=".42" stop-color="#fff" stop-opacity=".035"/>
    <stop offset=".7" stop-color="#fff" stop-opacity="0"/>
  </linearGradient>
  <mask id="ring">
    <rect width="550" height="366" fill="#000"/>
    <rect x="4" y="5" width="542" height="356" rx="10" fill="#fff"/>
    <rect x="31" y="48" width="488" height="283" rx="9" fill="#000"/>
  </mask>
  <clipPath id="pane"><rect x="31" y="48" width="488" height="283" rx="9"/></clipPath>
</defs>
<!-- Thin moving door only. It shares reader-mechanism's exact 550x366 box. -->
<rect x="4" y="5" width="542" height="356" rx="10" fill="url(#f)" mask="url(#ring)"/>
<rect x="4" y="5" width="542" height="356" rx="10" fill="none" stroke="#080a0b" stroke-width="3"/>
<rect x="9" y="10" width="532" height="346" rx="8" fill="none" stroke="#6a6e6d" stroke-opacity=".35" stroke-width="1.5"/>
<rect x="27" y="44" width="496" height="291" rx="11" fill="none" stroke="#07090a" stroke-width="9"/>
<rect x="33" y="50" width="484" height="279" rx="9" fill="none" stroke="#4d5355" stroke-opacity=".58" stroke-width="3"/>
<rect x="36" y="53" width="478" height="273" rx="7" fill="none" stroke="#050708" stroke-opacity=".72" stroke-width="2"/>
<g clip-path="url(#pane)">
  <rect x="31" y="48" width="488" height="283" fill="url(#g)"/>
  <path d="M105 48h54L70 331H32Z" fill="url(#r)"/>
  <path d="M480 48h20l-22 283h-15Z" fill="#fff" opacity=".02"/>
</g>
<!-- Small top latch, no screws and no visible hinge blocks. -->
<path d="M232 5h86l-4 25c-1 6-5 9-11 9h-56c-6 0-10-3-11-9Z" fill="#171b1d" stroke="#07090a" stroke-width="3"/>
<path d="M240 10h70l-3 15h-64Z" fill="#555a5a" opacity=".42"/>
</svg>