<svg xmlns="http://www.w3.org/2000/svg" width="1448" height="1086" viewBox="0 0 1448 1086"><rect width="1448" height="1086" fill="#5b2e17"/><g fill="#26292a" stroke="#0a0b0c" stroke-width="6"><rect x="36" y="100" width="1348" height="908" rx="18"/><rect x="62" y="146" width="364" height="330" rx="10"/><rect x="438" y="138" width="113" height="456" rx="10"/><rect x="565" y="138" width="533" height="442" rx="12"/><rect x="1112" y="138" width="244" height="456" rx="12"/><rect x="62" y="612" width="344" height="356" rx="8"/><rect x="408" y="612" width="948" height="356" rx="8"/></g><g fill="#151819" stroke="#4b4e4f" stroke-width="3"><rect x="82" y="176" width="323" height="270" rx="8"/><rect x="64" y="486" width="360" height="108" rx="8"/><rect x="596" y="176" width="468" height="296" rx="12"/></g><g fill="#151819"><rect x="1128" y="198" width="212" height="160" rx="6"/></g><g fill="none" stroke="#8b8d8d" stroke-width="2" stroke-dasharray="9 6"><rect x="1128" y="198" width="212" height="160" rx="6"/></g><g fill="#e8dfce" stroke="#6a6256" stroke-width="2"><rect x="1128" y="374" width="212" height="49" rx="5"/><rect x="1128" y="435" width="212" height="49" rx="5"/></g><g fill="#17191a" stroke="#08090a" stroke-width="4"><rect x="583" y="486" width="151" height="94" rx="7"/><rect x="744" y="486" width="140" height="94" rx="7"/><rect x="896" y="486" width="190" height="94" rx="7"/></g><rect x="748" y="490" width="132" height="86" rx="5" fill="#ffb035" stroke="#e58b0a" stroke-width="3"/><g fill="#d9dbd9" font-family="monospace" font-size="24" font-weight="700"><text x="116" y="648">CRATES</text><text x="472" y="648">BEATS</text><text x="1150" y="177">IMPORT SAMPLES</text><text x="468" y="169">PITCH</text><text x="103" y="511">VOLUME</text><text x="246" y="511">MIC</text><text x="337" y="511">PHONES</text></g><g fill="#121415"><rect x="73" y="660" width="322" height="298"/><rect x="424" y="660" width="916" height="298"/></g></svg>