<svg xmlns="http://www.w3.org/2000/svg" width="1448" height="1086" viewBox="0 0 1448 1086">
  <defs>
    <linearGradient id="rubber" x1="0" y1="0" x2="1" y2="1">
      <stop offset="0" stop-color="#333839"/><stop offset=".32" stop-color="#1c2021"/><stop offset=".72" stop-color="#0d1011"/><stop offset="1" stop-color="#050607"/>
    </linearGradient>
    <linearGradient id="metal" x1="0" y1="0" x2="1" y2="0">
      <stop offset="0" stop-color="#5c5b58"/>
      <stop offset=".13" stop-color="#bdb8ae"/>
      <stop offset=".28" stop-color="#eee8dc"/>
      <stop offset=".42" stop-color="#9e9a92"/>
      <stop offset=".63" stop-color="#d7d2c8"/>
      <stop offset=".78" stop-color="#777672"/>
      <stop offset="1" stop-color="#464744"/>
    </linearGradient>
    <linearGradient id="steelEdge" x1="0" y1="0" x2="0" y2="1">
      <stop offset="0" stop-color="#e5dfd4" stop-opacity=".8"/>
      <stop offset=".5" stop-color="#8f8d87" stop-opacity=".15"/>
      <stop offset="1" stop-color="#1e2020" stop-opacity=".8"/>
    </linearGradient>
  </defs>

  <!-- one heavy power lead, rising behind the machine -->
  <path d="M338 104C338 80 340 54 347 30c4-13 10-23 16-32" fill="none" stroke="#050607" stroke-width="34" stroke-linecap="round"/>
  <path d="M338 104C338 80 340 54 347 30c4-13 10-23 16-32" fill="none" stroke="#1d2122" stroke-width="23" stroke-linecap="round"/>
  <path d="M333 88C335 65 339 43 347 24" fill="none" stroke="#4b5152" stroke-opacity=".32" stroke-width="4" stroke-linecap="round"/>
  <g transform="translate(307 48)">
    <rect x="0" y="1" width="65" height="58" rx="10" fill="url(#rubber)" stroke="#040506" stroke-width="4"/>
    <path d="M8 13h49M7 28h51M9 43h47" stroke="#555a5b" stroke-opacity=".52" stroke-width="6" stroke-linecap="round"/>
    <path d="M9 12h47" stroke="#8b8f90" stroke-opacity=".13" stroke-width="2" stroke-linecap="round"/>
    <rect x="6" y="52" width="53" height="13" rx="5" fill="#0b0d0e" stroke="#303435" stroke-width="2"/>
  </g>

  <!-- Two XLR-style leads. The exposed part is an inline metal barrel, not a fake front socket. -->
  <g>
    <path d="M1025 104V42c0-18 2-29 8-44" fill="none" stroke="#050607" stroke-width="29" stroke-linecap="round"/>
    <path d="M1025 104V42c0-18 2-29 8-44" fill="none" stroke="#1b1f20" stroke-width="19" stroke-linecap="round"/>
    <path d="M1020 71V23" fill="none" stroke="#4a4f50" stroke-opacity=".28" stroke-width="3"/>
    <g transform="translate(997 0)">
      <rect x="4" y="0" width="49" height="51" rx="11" fill="url(#rubber)" stroke="#040506" stroke-width="3"/>
      <path d="M9 11h39M8 22h41M9 33h39" stroke="#4c5152" stroke-opacity=".48" stroke-width="4" stroke-linecap="round"/>
      <rect x="8" y="42" width="41" height="58" rx="6" fill="url(#metal)" stroke="#353634" stroke-width="2"/>
      <rect x="10" y="44" width="37" height="54" rx="4" fill="none" stroke="url(#steelEdge)" stroke-width="2"/>
      <path d="M17 47v48M34 47v48" stroke="#fff" stroke-opacity=".16" stroke-width="3"/>
      <rect x="5" y="94" width="47" height="10" rx="4" fill="#151819" stroke="#050607" stroke-width="2"/>
    </g>
  </g>

  <g>
    <path d="M1137 104V42c0-18 2-29 8-44" fill="none" stroke="#050607" stroke-width="29" stroke-linecap="round"/>
    <path d="M1137 104V42c0-18 2-29 8-44" fill="none" stroke="#1b1f20" stroke-width="19" stroke-linecap="round"/>
    <path d="M1132 71V23" fill="none" stroke="#4a4f50" stroke-opacity=".28" stroke-width="3"/>
    <g transform="translate(1109 0)">
      <rect x="4" y="0" width="49" height="51" rx="11" fill="url(#rubber)" stroke="#040506" stroke-width="3"/>
      <path d="M9 11h39M8 22h41M9 33h39" stroke="#4c5152" stroke-opacity=".48" stroke-width="4" stroke-linecap="round"/>
      <rect x="8" y="42" width="41" height="58" rx="6" fill="url(#metal)" stroke="#353634" stroke-width="2"/>
      <rect x="10" y="44" width="37" height="54" rx="4" fill="none" stroke="url(#steelEdge)" stroke-width="2"/>
      <path d="M17 47v48M34 47v48" stroke="#fff" stroke-opacity=".16" stroke-width="3"/>
      <rect x="5" y="94" width="47" height="10" rx="4" fill="#151819" stroke="#050607" stroke-width="2"/>
    </g>
  </g>
</svg>